#!OML:ASF E:\Style4\Style4.ASF
:FULLY-SPECIFIED
:DEGREES
3254
root -0.558896 17.5281 -3.76514 2.9563 -0.66015 2.09407
lowerback 15.3826 3.45619 0.435915
upperback 7.38707 4.59692 0.444123
thorax -0.783007 2.29441 -0.499421
lowerneck -1.22337 -1.67884 -4.74425
upperneck 10.5218 -2.31448 3.23022
head 3.75876 -1.19264 1.82846
rclavicle 9.14409e-015 -1.19271e-014
rhumerus 22.7884 5.77223 -61.3305
rradius 45.8992
rwrist 15.711
rhand -22.158 14.2375
rfingers 7.12502
rthumb 4.25618 -15.6997
lclavicle 9.14409e-015 -1.19271e-014
lhumerus 18.8867 -27.8867 49.3286
lradius 102.462
lwrist -8.72928
lhand -25.1397 28.2964
lfingers 7.12502
lthumb 1.37665 58.2718
rfemur -27.446 -1.1342 17.6404
rtibia 39.3916
rfoot -14.7197 -9.66736
rtoes -7.52172
lfemur -24.4961 2.06876 -20.2284
ltibia 37.9064
lfoot -16.9325 8.53996
ltoes -15.0938
3255
root -0.563359 17.5282 -3.76765 2.97686 -0.630855 2.15911
lowerback 15.4407 3.46081 0.37859
upperback 7.33554 4.59377 0.361421
thorax -0.865521 2.29233 -0.558845
lowerneck -1.21862 -1.60174 -4.75428
upperneck 10.4925 -2.21672 3.2937
head 3.74438 -1.14235 1.8553
rclavicle 2.0276e-014 7.15625e-015
rhumerus 22.6491 5.78986 -61.5252
rradius 45.9164
rwrist 15.6367
rhand -22.193 14.3307
rfingers 7.12502
rthumb 4.22245 -15.6072
lclavicle 2.0276e-014 7.15625e-015
lhumerus 19.8447 -27.0898 49.2155
lradius 101.336
lwrist -8.91601
lhand -25.0193 28.4279
lfingers 7.12502
lthumb 1.49289 58.4024
rfemur -27.4811 -1.12666 17.5815
rtibia 39.4077
rfoot -14.7083 -9.70033
rtoes -7.66474
lfemur -24.5141 2.08456 -20.2833
ltibia 37.8762
lfoot -16.9467 8.47499
ltoes -14.9549
3256
root -0.568507 17.528 -3.76969 2.99976 -0.6107 2.19232
lowerback 15.3461 3.49537 0.271067
upperback 7.38598 4.62468 0.367249
thorax -0.771074 2.30595 -0.489604
lowerneck -1.23715 -1.55101 -4.83059
upperneck 10.3649 -2.14182 3.28462
head 3.70081 -1.10809 1.86784
rclavicle 5.1684e-015 -7.15625e-015
rhumerus 22.6627 5.78662 -61.5297
rradius 45.9278
rwrist 15.5907
rhand -22.0825 14.501
rfingers 7.12502
rthumb 4.32907 -15.4347
lclavicle 5.1684e-015 -7.15625e-015
lhumerus 20.8473 -26.2271 49.2384
lradius 100.148
lwrist -9.01827
lhand -24.6631 28.1822
lfingers 7.12502
lthumb 1.83693 58.1541
rfemur -27.5412 -1.11973 17.5607
rtibia 39.4535
rfoot -14.6827 -9.74818
rtoes -7.8578
lfemur -24.5444 2.08032 -20.3042
ltibia 37.8593
lfoot -16.9203 8.44957
ltoes -14.9096
3257
root -0.57169 17.5266 -3.77155 3.00285 -0.575944 2.19253
lowerback 15.1452 3.53694 0.152718
upperback 7.51128 4.66526 0.444988
thorax -0.548701 2.32353 -0.331053
lowerneck -1.21923 -1.50963 -5.0346
upperneck 10.1165 -2.07747 3.31607
head 3.61205 -1.08193 1.91594
rclavicle -5.4467e-014 2.78299e-014
rhumerus 22.7865 5.798 -61.4008
rradius 45.9373
rwrist 15.515
rhand -22.0536 14.53
rfingers 7.12502
rthumb 4.35698 -15.4052
lclavicle -5.4467e-014 2.78299e-014
lhumerus 21.7873 -25.3981 49.4187
lradius 98.8928
lwrist -9.25563
lhand -24.4547 28.1754
lfingers 7.12502
lthumb 2.03823 58.1454
rfemur -27.5813 -1.16082 17.5724
rtibia 39.5173
rfoot -14.7036 -9.71746
rtoes -7.70855
lfemur -24.577 2.07431 -20.2958
ltibia 37.8807
lfoot -16.8807 8.43858
ltoes -15.0378
3258
root -0.575408 17.5237 -3.77617 3.01338 -0.497892 2.22584
lowerback 15.1342 3.52368 0.0797621
upperback 7.52707 4.63789 0.410254
thorax -0.529191 2.30895 -0.321029
lowerneck -1.20511 -1.47217 -5.02942
upperneck 9.94014 -2.02644 3.3189
head 3.54494 -1.05573 1.9163
rclavicle 4.85035e-014 -2.38542e-014
rhumerus 22.7625 5.82184 -61.5386
rradius 46.0083
rwrist 15.5088
rhand -22.0644 14.4071
rfingers 7.12502
rthumb 4.34658 -15.5283
lclavicle 4.85035e-014 -2.38542e-014
lhumerus 22.6154 -24.7145 49.4469
lradius 97.571
lwrist -9.66166
lhand -24.5204 29.0037
lfingers 7.12502
lthumb 1.97472 58.9743
rfemur -27.6363 -1.24549 17.5541
rtibia 39.5952
rfoot -14.7522 -9.66055
rtoes -7.56623
lfemur -24.6576 2.09017 -20.3266
ltibia 37.9456
lfoot -16.8183 8.39825
ltoes -15.4992
3259
root -0.579121 17.5202 -3.78281 3.02958 -0.439403 2.19662
lowerback 15.2181 3.50122 0.103239
upperback 7.48573 4.61057 0.364963
thorax -0.611434 2.2963 -0.384062
lowerneck -1.16311 -1.42518 -4.99565
upperneck 9.82835 -1.96651 3.32771
head 3.49432 -1.02437 1.91428
rclavicle 1.98785e-015 2.38542e-015
rhumerus 22.6976 5.80772 -61.7758
rradius 46.0716
rwrist 15.5769
rhand -22.0477 14.4311
rfingers 7.12502
rthumb 4.36271 -15.5039
lclavicle 1.98785e-015 2.38542e-015
lhumerus 23.3217 -24.1034 49.4479
lradius 96.2618
lwrist -9.853
lhand -24.6013 29.41
lfingers 7.12502
lthumb 1.89663 59.3813
rfemur -27.7065 -1.27617 17.606
rtibia 39.6709
rfoot -14.8026 -9.67182
rtoes -7.68422
lfemur -24.7647 2.10401 -20.2789
ltibia 38.0473
lfoot -16.8032 8.33771
ltoes -15.5833
3260
root -0.581132 17.516 -3.78881 3.05481 -0.419315 2.1337
lowerback 15.2355 3.50406 0.167014
upperback 7.48831 4.62212 0.341177
thorax -0.610779 2.30407 -0.446942
lowerneck -1.15716 -1.40284 -5.05549
upperneck 9.69773 -1.93868 3.3954
head 3.44888 -1.00981 1.94791
rclavicle 5.08889e-014 -1.27222e-014
rhumerus 22.6642 5.84837 -61.858
rradius 46.1896
rwrist 15.5304
rhand -22.011 14.2817
rfingers 7.12502
rthumb 4.39815 -15.6527
lclavicle 5.08889e-014 -1.27222e-014
lhumerus 24.074 -23.4998 49.5013
lradius 94.8648
lwrist -9.87307
lhand -24.6246 29.306
lfingers 7.12502
lthumb 1.87414 59.2775
rfemur -27.7972 -1.28995 17.6832
rtibia 39.7536
rfoot -14.8453 -9.64277
rtoes -7.43329
lfemur -24.8868 2.11521 -20.2015
ltibia 38.1654
lfoot -16.8022 8.31422
ltoes -15.5446
3261
root -0.583469 17.5104 -3.79306 3.06991 -0.405604 2.07043
lowerback 15.2646 3.49482 0.208271
upperback 7.48406 4.61489 0.319132
thorax -0.625465 2.30176 -0.493682
lowerneck -1.07677 -1.37524 -5.14212
upperneck 9.50472 -1.90751 3.48896
head 3.36855 -0.993912 1.99466
rclavicle 3.06128e-014 -7.95139e-015
rhumerus 22.6726 5.99447 -61.8869
rradius 46.2793
rwrist 15.4235
rhand -22.0154 14.1549
rfingers 7.12502
rthumb 4.39388 -15.7795
lclavicle 3.06128e-014 -7.95139e-015
lhumerus 24.7792 -22.9217 49.6255
lradius 93.3758
lwrist -9.85161
lhand -24.4786 29.4803
lfingers 7.12502
lthumb 2.01512 59.4505
rfemur -27.8854 -1.29315 17.7687
rtibia 39.8397
rfoot -14.8277 -9.71862
rtoes -7.68849
lfemur -24.9922 2.14608 -20.1248
ltibia 38.2831
lfoot -16.9131 8.25723
ltoes -15.3303
3262
root -0.587057 17.5049 -3.79574 3.00326 -0.365912 2.06929
lowerback 15.3374 3.47924 0.161156
upperback 7.51076 4.58767 0.304427
thorax -0.63818 2.28729 -0.482154
lowerneck -0.940744 -1.36395 -5.18585
upperneck 9.2515 -1.89474 3.50072
head 3.25558 -0.988496 2.00468
rclavicle -2.82274e-014 4.77083e-015
rhumerus 22.6823 6.17825 -61.8948
rradius 46.3838
rwrist 15.2623
rhand -22.0822 14.0041
rfingers 7.12502
rthumb 4.32943 -15.9316
lclavicle -2.82274e-014 4.77083e-015
lhumerus 25.4215 -22.3729 49.8018
lradius 91.8835
lwrist -9.7444
lhand -24.1534 29.75
lfingers 7.12502
lthumb 2.32921 59.717
rfemur -27.8706 -1.30831 17.7857
rtibia 39.943
rfoot -14.8547 -9.78439
rtoes -7.515
lfemur -24.9914 2.15366 -20.1087
ltibia 38.3923
lfoot -16.9839 8.25078
ltoes -15.5608
3263
root -0.590661 17.4997 -3.79997 2.92108 -0.371574 2.16358
lowerback 15.424 3.48759 -0.0253817
upperback 7.55391 4.57271 0.28723
thorax -0.651136 2.2755 -0.397768
lowerneck -0.756584 -1.35839 -5.23377
upperneck 8.9148 -1.89066 3.50993
head 3.10596 -0.987474 2.01361
rclavicle -6.63941e-014 1.51076e-014
rhumerus 22.7509 6.37132 -61.8522
rradius 46.4622
rwrist 15.0847
rhand -22.0157 13.9389
rfingers 7.12502
rthumb 4.39357 -15.9955
lclavicle -6.63941e-014 1.51076e-014
lhumerus 25.9558 -21.8348 50.0602
lradius 90.3421
lwrist -9.86882
lhand -23.8992 30.0184
lfingers 7.12502
lthumb 2.57474 59.9826
rfemur -27.8717 -1.31328 17.6902
rtibia 40.0661
rfoot -14.8307 -9.80807
rtoes -7.60759
lfemur -24.9656 2.19386 -20.2022
ltibia 38.4908
lfoot -16.9869 8.20289
ltoes -15.4802
3264
root -0.593887 17.494 -3.80512 2.86861 -0.432137 2.18873
lowerback 15.4757 3.49047 -0.16676
upperback 7.5958 4.5568 0.289621
thorax -0.645111 2.26391 -0.315773
lowerneck -0.669757 -1.33777 -5.3166
upperneck 8.69198 -1.86607 3.56657
head 3.01492 -0.975788 2.04654
rclavicle -1.19271e-014 1.35174e-014
rhumerus 22.9001 6.62189 -61.8067
rradius 46.4796
rwrist 14.9833
rhand -22.0468 13.9263
rfingers 7.12502
rthumb 4.36357 -16.0087
lclavicle -1.19271e-014 1.35174e-014
lhumerus 26.442 -21.2809 50.3374
lradius 88.7335
lwrist -10.1764
lhand -23.5534 29.8327
lfingers 7.12502
lthumb 2.90864 59.7926
rfemur -27.9227 -1.25647 17.6689
rtibia 40.1979
rfoot -14.8482 -9.77364
rtoes -7.7367
lfemur -24.9834 2.31439 -20.2297
ltibia 38.5993
lfoot -16.973 8.09318
ltoes -15.1594
